<svg xmlns="http://www.w3.org/2000/svg" xmlns:xlink="http://www.w3.org/1999/xlink" width="500" zoomAndPan="magnify" viewBox="0 0 375 374.999991" height="500" preserveAspectRatio="xMidYMid meet" version="1.0"><defs><g/><clipPath id="d2f913c3b3"><path d="M 75 192 L 104 192 L 104 224.164062 L 75 224.164062 Z M 75 192 " clip-rule="nonzero"/></clipPath><clipPath id="da437e293e"><path d="M 58.445312 152.164062 L 117 152.164062 L 117 197 L 58.445312 197 Z M 58.445312 152.164062 " clip-rule="nonzero"/></clipPath><clipPath id="6d4593cb50"><path d="M 122 189 L 140.195312 189 L 140.195312 197 L 122 197 Z M 122 189 " clip-rule="nonzero"/></clipPath><clipPath id="c27cf56137"><path d="M 133.222656 189.847656 L 307.265625 189.847656 L 307.265625 196.886719 L 133.222656 196.886719 Z M 133.222656 189.847656 " clip-rule="nonzero"/></clipPath><clipPath id="ea1490c58b"><path d="M 136.742188 189.847656 L 303.722656 189.847656 C 305.664062 189.847656 307.242188 191.421875 307.242188 193.367188 C 307.242188 195.3125 305.664062 196.886719 303.722656 196.886719 L 136.742188 196.886719 C 134.796875 196.886719 133.222656 195.3125 133.222656 193.367188 C 133.222656 191.421875 134.796875 189.847656 136.742188 189.847656 Z M 136.742188 189.847656 " clip-rule="nonzero"/></clipPath></defs><g clip-path="url(#d2f913c3b3)"><path fill="#51ade5" d="M 96.234375 192.835938 L 96.234375 210.359375 C 96.234375 214.046875 93.246094 217.035156 89.554688 217.035156 C 85.867188 217.035156 82.875 214.046875 82.875 210.359375 L 82.875 199.75 L 75.75 199.75 L 75.75 210.359375 C 75.75 217.980469 81.929688 224.160156 89.554688 224.160156 C 97.179688 224.160156 103.359375 217.980469 103.359375 210.359375 L 103.359375 192.835938 L 96.234375 192.835938 " fill-opacity="1" fill-rule="nonzero"/></g><path fill="#a7a5a6" d="M 103.359375 199.75 L 103.359375 192.835938 L 96.234375 192.835938 L 103.359375 192.835938 L 103.359375 199.75 " fill-opacity="1" fill-rule="nonzero"/><path fill="#356f95" d="M 96.234375 199.75 L 103.359375 199.75 L 103.359375 192.835938 L 96.234375 192.835938 Z M 96.234375 199.75 " fill-opacity="1" fill-rule="nonzero"/><g clip-path="url(#da437e293e)"><path fill="#ed127c" d="M 113.046875 189.789062 L 72.351562 189.789062 C 68.679688 189.789062 65.621094 186.871094 65.570312 183.203125 C 65.523438 179.472656 68.53125 176.4375 72.25 176.4375 L 82.863281 176.4375 L 82.863281 165.96875 C 82.863281 162.28125 85.859375 159.292969 89.550781 159.292969 L 89.546875 159.292969 C 93.238281 159.292969 96.226562 162.28125 96.226562 165.96875 L 96.226562 186.875 L 103.390625 186.875 L 103.390625 165.96875 C 103.390625 158.347656 97.210938 152.167969 89.585938 152.167969 L 89.539062 152.167969 C 81.925781 152.167969 75.699219 158.394531 75.699219 166 L 75.699219 169.273438 L 72.25 169.273438 C 64.625 169.273438 58.445312 175.492188 58.445312 183.113281 C 58.445312 190.734375 64.625 196.953125 72.25 196.953125 L 113.046875 196.953125 C 115.027344 196.953125 116.628906 195.347656 116.628906 193.371094 C 116.628906 191.394531 115.027344 189.789062 113.046875 189.789062 " fill-opacity="1" fill-rule="nonzero"/></g><g clip-path="url(#6d4593cb50)"><path fill="#ed127c" d="M 122.582031 193.371094 C 122.582031 195.347656 124.1875 196.949219 126.164062 196.949219 L 136.609375 196.949219 C 138.589844 196.949219 140.195312 195.347656 140.195312 193.371094 C 140.195312 191.390625 138.589844 189.789062 136.609375 189.789062 L 126.164062 189.789062 C 124.1875 189.789062 122.582031 191.390625 122.582031 193.371094 " fill-opacity="1" fill-rule="nonzero"/></g><g clip-path="url(#c27cf56137)"><g clip-path="url(#ea1490c58b)"><path fill="#ed127c" d="M 133.222656 189.847656 L 307.238281 189.847656 L 307.238281 196.886719 L 133.222656 196.886719 Z M 133.222656 189.847656 " fill-opacity="1" fill-rule="nonzero"/></g></g><g fill="#ed127c" fill-opacity="1"><g transform="translate(123.66987, 176.508708)"><g><path d="M 16.921875 0 L 13.0625 0 L 13.0625 -8.03125 L 5.53125 -8.03125 L 5.53125 0 L 1.671875 0 L 1.671875 -18.734375 L 5.53125 -18.734375 L 5.53125 -11.140625 L 13.0625 -11.140625 L 13.0625 -18.734375 L 16.921875 -18.734375 Z M 16.921875 0 "/></g></g></g><g fill="#ed127c" fill-opacity="1"><g transform="translate(142.28286, 176.508708)"><g><path d="M 7.828125 0.25 C 5.785156 0.25 4.125 -0.375 2.84375 -1.625 C 1.5625 -2.875 0.921875 -4.539062 0.921875 -6.625 L 0.921875 -6.984375 C 0.921875 -8.378906 1.191406 -9.628906 1.734375 -10.734375 C 2.273438 -11.835938 3.039062 -12.6875 4.03125 -13.28125 C 5.019531 -13.875 6.148438 -14.171875 7.421875 -14.171875 C 9.328125 -14.171875 10.828125 -13.570312 11.921875 -12.375 C 13.015625 -11.175781 13.5625 -9.472656 13.5625 -7.265625 L 13.5625 -5.75 L 4.6875 -5.75 C 4.8125 -4.84375 5.175781 -4.113281 5.78125 -3.5625 C 6.382812 -3.007812 7.148438 -2.734375 8.078125 -2.734375 C 9.503906 -2.734375 10.625 -3.253906 11.4375 -4.296875 L 13.265625 -2.25 C 12.703125 -1.457031 11.941406 -0.84375 10.984375 -0.40625 C 10.035156 0.03125 8.984375 0.25 7.828125 0.25 Z M 7.40625 -11.171875 C 6.664062 -11.171875 6.066406 -10.921875 5.609375 -10.421875 C 5.148438 -9.921875 4.859375 -9.207031 4.734375 -8.28125 L 9.90625 -8.28125 L 9.90625 -8.578125 C 9.882812 -9.398438 9.660156 -10.035156 9.234375 -10.484375 C 8.804688 -10.941406 8.195312 -11.171875 7.40625 -11.171875 Z M 7.40625 -11.171875 "/></g></g></g><g fill="#ed127c" fill-opacity="1"><g transform="translate(156.522377, 176.508708)"><g><path d="M 9.5 0 C 9.320312 -0.332031 9.195312 -0.75 9.125 -1.25 C 8.21875 -0.25 7.046875 0.25 5.609375 0.25 C 4.242188 0.25 3.113281 -0.140625 2.21875 -0.921875 C 1.320312 -1.710938 0.875 -2.707031 0.875 -3.90625 C 0.875 -5.382812 1.421875 -6.515625 2.515625 -7.296875 C 3.609375 -8.085938 5.1875 -8.488281 7.25 -8.5 L 8.96875 -8.5 L 8.96875 -9.296875 C 8.96875 -9.941406 8.800781 -10.457031 8.46875 -10.84375 C 8.132812 -11.226562 7.613281 -11.421875 6.90625 -11.421875 C 6.28125 -11.421875 5.789062 -11.269531 5.4375 -10.96875 C 5.082031 -10.664062 4.90625 -10.253906 4.90625 -9.734375 L 1.1875 -9.734375 C 1.1875 -10.546875 1.429688 -11.289062 1.921875 -11.96875 C 2.421875 -12.65625 3.125 -13.191406 4.03125 -13.578125 C 4.945312 -13.972656 5.96875 -14.171875 7.09375 -14.171875 C 8.8125 -14.171875 10.175781 -13.738281 11.1875 -12.875 C 12.195312 -12.019531 12.703125 -10.8125 12.703125 -9.25 L 12.703125 -3.21875 C 12.703125 -1.894531 12.882812 -0.894531 13.25 -0.21875 L 13.25 0 Z M 6.421875 -2.578125 C 6.960938 -2.578125 7.460938 -2.695312 7.921875 -2.9375 C 8.390625 -3.1875 8.738281 -3.519531 8.96875 -3.9375 L 8.96875 -6.328125 L 7.578125 -6.328125 C 5.710938 -6.328125 4.722656 -5.6875 4.609375 -4.40625 L 4.59375 -4.1875 C 4.59375 -3.71875 4.753906 -3.332031 5.078125 -3.03125 C 5.398438 -2.726562 5.847656 -2.578125 6.421875 -2.578125 Z M 6.421875 -2.578125 "/></g></g></g><g fill="#ed127c" fill-opacity="1"><g transform="translate(170.646124, 176.508708)"><g><path d="M 5.34375 0 L 1.625 0 L 1.625 -19.765625 L 5.34375 -19.765625 Z M 5.34375 0 "/></g></g></g><g fill="#ed127c" fill-opacity="1"><g transform="translate(177.630819, 176.508708)"><g><path d="M 5.875 -17.34375 L 5.875 -13.921875 L 8.265625 -13.921875 L 8.265625 -11.1875 L 5.875 -11.1875 L 5.875 -4.25 C 5.875 -3.726562 5.972656 -3.351562 6.171875 -3.125 C 6.367188 -2.90625 6.75 -2.796875 7.3125 -2.796875 C 7.71875 -2.796875 8.082031 -2.828125 8.40625 -2.890625 L 8.40625 -0.078125 C 7.675781 0.140625 6.925781 0.25 6.15625 0.25 C 3.539062 0.25 2.207031 -1.0625 2.15625 -3.6875 L 2.15625 -11.1875 L 0.125 -11.1875 L 0.125 -13.921875 L 2.15625 -13.921875 L 2.15625 -17.34375 Z M 5.875 -17.34375 "/></g></g></g><g fill="#ed127c" fill-opacity="1"><g transform="translate(186.532125, 176.508708)"><g><path d="M 5.0625 -12.40625 C 6.039062 -13.582031 7.273438 -14.171875 8.765625 -14.171875 C 11.785156 -14.171875 13.316406 -12.421875 13.359375 -8.921875 L 13.359375 0 L 9.640625 0 L 9.640625 -8.8125 C 9.640625 -9.601562 9.46875 -10.191406 9.125 -10.578125 C 8.789062 -10.960938 8.222656 -11.15625 7.421875 -11.15625 C 6.328125 -11.15625 5.539062 -10.734375 5.0625 -9.890625 L 5.0625 0 L 1.34375 0 L 1.34375 -19.765625 L 5.0625 -19.765625 Z M 5.0625 -12.40625 "/></g></g></g><g fill="#ed127c" fill-opacity="1"><g transform="translate(201.273304, 176.508708)"><g/></g></g><g fill="#ed127c" fill-opacity="1"><g transform="translate(207.833515, 176.508708)"><g><path d="M 16.375 -6.234375 C 16.226562 -4.222656 15.484375 -2.640625 14.140625 -1.484375 C 12.796875 -0.328125 11.03125 0.25 8.84375 0.25 C 6.4375 0.25 4.546875 -0.554688 3.171875 -2.171875 C 1.796875 -3.785156 1.109375 -6.003906 1.109375 -8.828125 L 1.109375 -9.96875 C 1.109375 -11.769531 1.425781 -13.351562 2.0625 -14.71875 C 2.695312 -16.09375 3.601562 -17.144531 4.78125 -17.875 C 5.957031 -18.613281 7.328125 -18.984375 8.890625 -18.984375 C 11.046875 -18.984375 12.785156 -18.40625 14.109375 -17.25 C 15.429688 -16.09375 16.195312 -14.46875 16.40625 -12.375 L 12.546875 -12.375 C 12.453125 -13.582031 12.113281 -14.457031 11.53125 -15 C 10.945312 -15.550781 10.066406 -15.828125 8.890625 -15.828125 C 7.597656 -15.828125 6.632812 -15.363281 6 -14.4375 C 5.363281 -13.519531 5.035156 -12.09375 5.015625 -10.15625 L 5.015625 -8.734375 C 5.015625 -6.710938 5.320312 -5.234375 5.9375 -4.296875 C 6.550781 -3.359375 7.519531 -2.890625 8.84375 -2.890625 C 10.03125 -2.890625 10.914062 -3.160156 11.5 -3.703125 C 12.09375 -4.253906 12.429688 -5.097656 12.515625 -6.234375 Z M 16.375 -6.234375 "/></g></g></g><g fill="#ed127c" fill-opacity="1"><g transform="translate(225.070147, 176.508708)"><g><path d="M 0.84375 -7.09375 C 0.84375 -8.46875 1.109375 -9.695312 1.640625 -10.78125 C 2.171875 -11.863281 2.9375 -12.695312 3.9375 -13.28125 C 4.9375 -13.875 6.097656 -14.171875 7.421875 -14.171875 C 9.296875 -14.171875 10.828125 -13.597656 12.015625 -12.453125 C 13.203125 -11.304688 13.867188 -9.742188 14.015625 -7.765625 L 14.03125 -6.8125 C 14.03125 -4.675781 13.429688 -2.960938 12.234375 -1.671875 C 11.046875 -0.390625 9.445312 0.25 7.4375 0.25 C 5.4375 0.25 3.835938 -0.390625 2.640625 -1.671875 C 1.441406 -2.960938 0.84375 -4.710938 0.84375 -6.921875 Z M 4.5625 -6.8125 C 4.5625 -5.5 4.8125 -4.488281 5.3125 -3.78125 C 5.8125 -3.082031 6.523438 -2.734375 7.453125 -2.734375 C 8.347656 -2.734375 9.046875 -3.078125 9.546875 -3.765625 C 10.054688 -4.460938 10.3125 -5.570312 10.3125 -7.09375 C 10.3125 -8.382812 10.054688 -9.382812 9.546875 -10.09375 C 9.046875 -10.8125 8.335938 -11.171875 7.421875 -11.171875 C 6.515625 -11.171875 5.8125 -10.816406 5.3125 -10.109375 C 4.8125 -9.398438 4.5625 -8.300781 4.5625 -6.8125 Z M 4.5625 -6.8125 "/></g></g></g><g fill="#ed127c" fill-opacity="1"><g transform="translate(239.965685, 176.508708)"><g><path d="M 4.84375 -13.921875 L 4.96875 -12.3125 C 5.957031 -13.550781 7.289062 -14.171875 8.96875 -14.171875 C 10.4375 -14.171875 11.53125 -13.738281 12.25 -12.875 C 12.976562 -12.007812 13.347656 -10.710938 13.359375 -8.984375 L 13.359375 0 L 9.640625 0 L 9.640625 -8.90625 C 9.640625 -9.6875 9.46875 -10.253906 9.125 -10.609375 C 8.789062 -10.972656 8.222656 -11.15625 7.421875 -11.15625 C 6.378906 -11.15625 5.59375 -10.707031 5.0625 -9.8125 L 5.0625 0 L 1.34375 0 L 1.34375 -13.921875 Z M 4.84375 -13.921875 "/></g></g></g><g fill="#ed127c" fill-opacity="1"><g transform="translate(254.719727, 176.508708)"><g><path d="M 4.84375 -13.921875 L 4.96875 -12.3125 C 5.957031 -13.550781 7.289062 -14.171875 8.96875 -14.171875 C 10.4375 -14.171875 11.53125 -13.738281 12.25 -12.875 C 12.976562 -12.007812 13.347656 -10.710938 13.359375 -8.984375 L 13.359375 0 L 9.640625 0 L 9.640625 -8.90625 C 9.640625 -9.6875 9.46875 -10.253906 9.125 -10.609375 C 8.789062 -10.972656 8.222656 -11.15625 7.421875 -11.15625 C 6.378906 -11.15625 5.59375 -10.707031 5.0625 -9.8125 L 5.0625 0 L 1.34375 0 L 1.34375 -13.921875 Z M 4.84375 -13.921875 "/></g></g></g><g fill="#ed127c" fill-opacity="1"><g transform="translate(269.47377, 176.508708)"><g><path d="M 7.828125 0.25 C 5.785156 0.25 4.125 -0.375 2.84375 -1.625 C 1.5625 -2.875 0.921875 -4.539062 0.921875 -6.625 L 0.921875 -6.984375 C 0.921875 -8.378906 1.191406 -9.628906 1.734375 -10.734375 C 2.273438 -11.835938 3.039062 -12.6875 4.03125 -13.28125 C 5.019531 -13.875 6.148438 -14.171875 7.421875 -14.171875 C 9.328125 -14.171875 10.828125 -13.570312 11.921875 -12.375 C 13.015625 -11.175781 13.5625 -9.472656 13.5625 -7.265625 L 13.5625 -5.75 L 4.6875 -5.75 C 4.8125 -4.84375 5.175781 -4.113281 5.78125 -3.5625 C 6.382812 -3.007812 7.148438 -2.734375 8.078125 -2.734375 C 9.503906 -2.734375 10.625 -3.253906 11.4375 -4.296875 L 13.265625 -2.25 C 12.703125 -1.457031 11.941406 -0.84375 10.984375 -0.40625 C 10.035156 0.03125 8.984375 0.25 7.828125 0.25 Z M 7.40625 -11.171875 C 6.664062 -11.171875 6.066406 -10.921875 5.609375 -10.421875 C 5.148438 -9.921875 4.859375 -9.207031 4.734375 -8.28125 L 9.90625 -8.28125 L 9.90625 -8.578125 C 9.882812 -9.398438 9.660156 -10.035156 9.234375 -10.484375 C 8.804688 -10.941406 8.195312 -11.171875 7.40625 -11.171875 Z M 7.40625 -11.171875 "/></g></g></g><g fill="#ed127c" fill-opacity="1"><g transform="translate(283.713286, 176.508708)"><g><path d="M 7.21875 -2.734375 C 7.90625 -2.734375 8.460938 -2.921875 8.890625 -3.296875 C 9.316406 -3.679688 9.539062 -4.1875 9.5625 -4.8125 L 13.046875 -4.8125 C 13.035156 -3.863281 12.773438 -3 12.265625 -2.21875 C 11.765625 -1.4375 11.070312 -0.828125 10.1875 -0.390625 C 9.3125 0.0351562 8.34375 0.25 7.28125 0.25 C 5.289062 0.25 3.71875 -0.378906 2.5625 -1.640625 C 1.414062 -2.898438 0.84375 -4.644531 0.84375 -6.875 L 0.84375 -7.125 C 0.84375 -9.269531 1.410156 -10.976562 2.546875 -12.25 C 3.691406 -13.53125 5.257812 -14.171875 7.25 -14.171875 C 8.988281 -14.171875 10.382812 -13.675781 11.4375 -12.6875 C 12.488281 -11.695312 13.023438 -10.378906 13.046875 -8.734375 L 9.5625 -8.734375 C 9.539062 -9.453125 9.316406 -10.035156 8.890625 -10.484375 C 8.460938 -10.941406 7.894531 -11.171875 7.1875 -11.171875 C 6.320312 -11.171875 5.664062 -10.851562 5.21875 -10.21875 C 4.78125 -9.59375 4.5625 -8.570312 4.5625 -7.15625 L 4.5625 -6.765625 C 4.5625 -5.335938 4.78125 -4.304688 5.21875 -3.671875 C 5.65625 -3.046875 6.320312 -2.734375 7.21875 -2.734375 Z M 7.21875 -2.734375 "/></g></g></g><g fill="#ed127c" fill-opacity="1"><g transform="translate(297.45114, 176.508708)"><g><path d="M 5.875 -17.34375 L 5.875 -13.921875 L 8.265625 -13.921875 L 8.265625 -11.1875 L 5.875 -11.1875 L 5.875 -4.25 C 5.875 -3.726562 5.972656 -3.351562 6.171875 -3.125 C 6.367188 -2.90625 6.75 -2.796875 7.3125 -2.796875 C 7.71875 -2.796875 8.082031 -2.828125 8.40625 -2.890625 L 8.40625 -0.078125 C 7.675781 0.140625 6.925781 0.25 6.15625 0.25 C 3.539062 0.25 2.207031 -1.0625 2.15625 -3.6875 L 2.15625 -11.1875 L 0.125 -11.1875 L 0.125 -13.921875 L 2.15625 -13.921875 L 2.15625 -17.34375 Z M 5.875 -17.34375 "/></g></g></g><g fill="#51aee5" fill-opacity="1"><g transform="translate(123.66987, 216.561007)"><g><path d="M 1.28125 0 L 1.28125 -8.796875 L 2.390625 -8.796875 L 2.390625 -1.0625 L 6.671875 -1.0625 L 6.671875 0 Z M 1.28125 0 "/></g></g></g><g fill="#51aee5" fill-opacity="1"><g transform="translate(132.201033, 216.561007)"><g><path d="M 1.28125 0 L 1.28125 -8.796875 L 2.390625 -8.796875 L 2.390625 0 Z M 1.28125 0 "/></g></g></g><g fill="#51aee5" fill-opacity="1"><g transform="translate(137.347422, 216.561007)"><g><path d="M 3.71875 0 L 0.21875 -8.796875 L 1.390625 -8.796875 L 2.859375 -5.09375 L 4.234375 -1.59375 L 5.609375 -5.09375 L 7.078125 -8.796875 L 8.25 -8.796875 L 4.75 0 Z M 3.71875 0 "/></g></g></g><g fill="#51aee5" fill-opacity="1"><g transform="translate(147.287865, 216.561007)"><g><path d="M 1.28125 0 L 1.28125 -8.796875 L 2.390625 -8.796875 L 2.390625 0 Z M 1.28125 0 "/></g></g></g><g fill="#51aee5" fill-opacity="1"><g transform="translate(152.434253, 216.561007)"><g><path d="M 1.28125 0 L 1.28125 -8.796875 L 2.328125 -8.796875 L 7.1875 -1.90625 L 7.1875 -8.796875 L 8.28125 -8.796875 L 8.28125 0 L 7.25 0 L 2.375 -6.890625 L 2.375 0 Z M 1.28125 0 "/></g></g></g><g fill="#51aee5" fill-opacity="1"><g transform="translate(163.469417, 216.561007)"><g><path d="M 5.203125 0.15625 C 4.554688 0.15625 3.960938 0.046875 3.421875 -0.171875 C 2.878906 -0.398438 2.40625 -0.71875 2 -1.125 C 1.59375 -1.53125 1.28125 -2.007812 1.0625 -2.5625 C 0.84375 -3.125 0.734375 -3.738281 0.734375 -4.40625 C 0.734375 -5.0625 0.84375 -5.664062 1.0625 -6.21875 C 1.28125 -6.78125 1.585938 -7.265625 1.984375 -7.671875 C 2.390625 -8.078125 2.863281 -8.394531 3.40625 -8.625 C 3.945312 -8.851562 4.539062 -8.96875 5.1875 -8.96875 C 5.851562 -8.96875 6.472656 -8.84375 7.046875 -8.59375 C 7.617188 -8.351562 8.109375 -8.015625 8.515625 -7.578125 C 8.929688 -7.148438 9.234375 -6.644531 9.421875 -6.0625 L 8.21875 -6.0625 C 7.9375 -6.632812 7.535156 -7.078125 7.015625 -7.390625 C 6.492188 -7.703125 5.894531 -7.859375 5.21875 -7.859375 C 4.5625 -7.859375 3.976562 -7.710938 3.46875 -7.421875 C 2.96875 -7.128906 2.570312 -6.722656 2.28125 -6.203125 C 2 -5.679688 1.859375 -5.082031 1.859375 -4.40625 C 1.859375 -3.726562 2.003906 -3.128906 2.296875 -2.609375 C 2.585938 -2.085938 2.984375 -1.675781 3.484375 -1.375 C 3.992188 -1.082031 4.578125 -0.9375 5.234375 -0.9375 C 5.828125 -0.9375 6.351562 -1.050781 6.8125 -1.28125 C 7.28125 -1.519531 7.65625 -1.847656 7.9375 -2.265625 C 8.226562 -2.679688 8.410156 -3.164062 8.484375 -3.71875 L 4.90625 -3.71875 L 4.90625 -4.78125 L 9.6875 -4.78125 C 9.695312 -3.8125 9.515625 -2.957031 9.140625 -2.21875 C 8.773438 -1.476562 8.253906 -0.894531 7.578125 -0.46875 C 6.898438 -0.0507812 6.109375 0.15625 5.203125 0.15625 Z M 5.203125 0.15625 "/></g></g></g><g fill="#51aee5" fill-opacity="1"><g transform="translate(175.322458, 216.561007)"><g/></g></g><g fill="#51aee5" fill-opacity="1"><g transform="translate(179.915205, 216.561007)"><g><path d="M 3.09375 0 L 0.234375 -8.796875 L 1.390625 -8.796875 L 2.609375 -5 L 3.640625 -1.78125 L 6.25 -8.796875 L 7.296875 -8.796875 L 9.90625 -1.765625 L 12.15625 -8.796875 L 13.3125 -8.796875 L 10.453125 0 L 9.421875 0 L 8.21875 -3.203125 L 6.765625 -7.125 L 4.125 0 Z M 3.09375 0 "/></g></g></g><g fill="#51aee5" fill-opacity="1"><g transform="translate(194.951714, 216.561007)"><g><path d="M 1.28125 0 L 1.28125 -8.796875 L 6.625 -8.796875 L 6.625 -7.765625 L 2.390625 -7.765625 L 2.390625 -5 L 6.3125 -5 L 6.3125 -3.96875 L 2.390625 -3.96875 L 2.390625 -1.03125 L 6.765625 -1.03125 L 6.765625 0 Z M 1.28125 0 "/></g></g></g><g fill="#51aee5" fill-opacity="1"><g transform="translate(204.01137, 216.561007)"><g><path d="M 1.28125 0 L 1.28125 -8.796875 L 2.390625 -8.796875 L 2.390625 -1.0625 L 6.671875 -1.0625 L 6.671875 0 Z M 1.28125 0 "/></g></g></g><g fill="#51aee5" fill-opacity="1"><g transform="translate(212.542536, 216.561007)"><g><path d="M 1.28125 0 L 1.28125 -8.796875 L 2.390625 -8.796875 L 2.390625 -1.0625 L 6.671875 -1.0625 L 6.671875 0 Z M 1.28125 0 "/></g></g></g><g fill="#51aee5" fill-opacity="1"><g transform="translate(221.073703, 216.561007)"><g/></g></g><g fill="#51aee5" fill-opacity="1"><g transform="translate(225.666454, 216.561007)"><g><path d="M 1.28125 0 L 1.28125 -8.796875 L 6.625 -8.796875 L 6.625 -7.765625 L 2.390625 -7.765625 L 2.390625 -5 L 6.3125 -5 L 6.3125 -3.96875 L 2.390625 -3.96875 L 2.390625 -1.03125 L 6.765625 -1.03125 L 6.765625 0 Z M 1.28125 0 "/></g></g></g><g fill="#51aee5" fill-opacity="1"><g transform="translate(234.72611, 216.561007)"><g><path d="M 3.71875 0 L 0.21875 -8.796875 L 1.390625 -8.796875 L 2.859375 -5.09375 L 4.234375 -1.59375 L 5.609375 -5.09375 L 7.078125 -8.796875 L 8.25 -8.796875 L 4.75 0 Z M 3.71875 0 "/></g></g></g><g fill="#51aee5" fill-opacity="1"><g transform="translate(244.666554, 216.561007)"><g><path d="M 1.28125 0 L 1.28125 -8.796875 L 6.625 -8.796875 L 6.625 -7.765625 L 2.390625 -7.765625 L 2.390625 -5 L 6.3125 -5 L 6.3125 -3.96875 L 2.390625 -3.96875 L 2.390625 -1.03125 L 6.765625 -1.03125 L 6.765625 0 Z M 1.28125 0 "/></g></g></g><g fill="#51aee5" fill-opacity="1"><g transform="translate(253.72621, 216.561007)"><g><path d="M 1.28125 0 L 1.28125 -8.796875 L 4.640625 -8.796875 C 5.253906 -8.796875 5.785156 -8.679688 6.234375 -8.453125 C 6.691406 -8.222656 7.046875 -7.898438 7.296875 -7.484375 C 7.546875 -7.066406 7.671875 -6.5625 7.671875 -5.96875 C 7.671875 -5.257812 7.484375 -4.671875 7.109375 -4.203125 C 6.742188 -3.742188 6.238281 -3.429688 5.59375 -3.265625 L 7.8125 0 L 6.484375 0 L 4.328125 -3.15625 L 2.390625 -3.15625 L 2.390625 0 Z M 2.390625 -4.21875 L 4.515625 -4.21875 C 5.160156 -4.21875 5.660156 -4.367188 6.015625 -4.671875 C 6.367188 -4.972656 6.546875 -5.40625 6.546875 -5.96875 C 6.546875 -6.53125 6.367188 -6.96875 6.015625 -7.28125 C 5.660156 -7.59375 5.160156 -7.75 4.515625 -7.75 L 2.390625 -7.75 Z M 2.390625 -4.21875 "/></g></g></g><g fill="#51aee5" fill-opacity="1"><g transform="translate(263.767318, 216.561007)"><g><path d="M 3.515625 0 L 3.515625 -3.171875 L 0.21875 -8.796875 L 1.5 -8.796875 L 2.9375 -6.34375 L 4.078125 -4.359375 L 6.671875 -8.796875 L 7.90625 -8.796875 L 4.609375 -3.171875 L 4.609375 0 Z M 3.515625 0 "/></g></g></g><g fill="#51aee5" fill-opacity="1"><g transform="translate(273.368031, 216.561007)"><g/></g></g><g fill="#51aee5" fill-opacity="1"><g transform="translate(277.960774, 216.561007)"><g><path d="M 1.28125 0 L 1.28125 -8.796875 L 4.328125 -8.796875 C 5.234375 -8.796875 6.019531 -8.609375 6.6875 -8.234375 C 7.363281 -7.867188 7.890625 -7.351562 8.265625 -6.6875 C 8.648438 -6.03125 8.84375 -5.269531 8.84375 -4.40625 C 8.84375 -3.539062 8.648438 -2.773438 8.265625 -2.109375 C 7.890625 -1.453125 7.363281 -0.9375 6.6875 -0.5625 C 6.019531 -0.1875 5.234375 0 4.328125 0 Z M 2.390625 -1.0625 L 4.328125 -1.0625 C 4.992188 -1.0625 5.582031 -1.203125 6.09375 -1.484375 C 6.601562 -1.765625 7 -2.15625 7.28125 -2.65625 C 7.5625 -3.15625 7.703125 -3.738281 7.703125 -4.40625 C 7.703125 -5.070312 7.554688 -5.65625 7.265625 -6.15625 C 6.984375 -6.65625 6.585938 -7.046875 6.078125 -7.328125 C 5.566406 -7.609375 4.96875 -7.75 4.28125 -7.75 L 2.390625 -7.75 Z M 2.390625 -1.0625 "/></g></g></g><g fill="#51aee5" fill-opacity="1"><g transform="translate(289.008509, 216.561007)"><g><path d="M 0.21875 0 L 3.84375 -8.796875 L 4.875 -8.796875 L 8.484375 0 L 7.328125 0 L 6.484375 -2 L 2.203125 -2 L 1.390625 0 Z M 2.625 -3.03125 L 6.078125 -3.03125 L 4.359375 -7.25 Z M 2.625 -3.03125 "/></g></g></g><g fill="#51aee5" fill-opacity="1"><g transform="translate(299.188031, 216.561007)"><g><path d="M 3.515625 0 L 3.515625 -3.171875 L 0.21875 -8.796875 L 1.5 -8.796875 L 2.9375 -6.34375 L 4.078125 -4.359375 L 6.671875 -8.796875 L 7.90625 -8.796875 L 4.609375 -3.171875 L 4.609375 0 Z M 3.515625 0 "/></g></g></g></svg>